<svg xmlns="http://www.w3.org/2000/svg" viewBox="0 0 63.46 32.29"><defs><style>.cls-1{fill:#e9ca94;}.cls-2{fill:#2b3c56;}</style></defs><title>half-flower</title><g id="Isolation_Mode" data-name="Isolation Mode"><path class="cls-1" d="M47.47,0a25,25,0,0,1-3.18,15A24.92,24.92,0,0,1,33,25.28,25.06,25.06,0,0,1,47.47,0"/><path class="cls-1" d="M19.05,15.06A24.8,24.8,0,0,1,15.74.15,24.83,24.83,0,0,1,27.09,10.37a24.86,24.86,0,0,1,3.32,14.92A24.88,24.88,0,0,1,19.05,15.06"/><path class="cls-1" d="M0,27.7A24.84,24.84,0,0,1,14.53,23a24.81,24.81,0,0,1,14.58,4.58A25.06,25.06,0,0,1,0,27.7"/><path class="cls-1" d="M48.92,32.13a24.88,24.88,0,0,1-14.57-4.59,25.1,25.1,0,0,1,29.11-.14,24.86,24.86,0,0,1-14.54,4.73"/><path class="cls-2" d="M50.14,18.15a8.35,8.35,0,0,1-5,1.25,8.39,8.39,0,0,1,8.26-5.14,8.29,8.29,0,0,1-3.3,3.89"/><path class="cls-2" d="M33.57,6.63a8.29,8.29,0,0,1-1.39,4.91,8.38,8.38,0,0,1-.33-9.72,8.29,8.29,0,0,1,1.72,4.81"/><path class="cls-2" d="M15.31,15.21a8.31,8.31,0,0,1,3.56,3.67,8.39,8.39,0,0,1-8.58-4.58,8.26,8.26,0,0,1,5,.91"/></g></svg>